<?xml version="1.0" encoding="utf-8"?>
<!-- Generator: Adobe Illustrator 16.0.4, SVG Export Plug-In . SVG Version: 6.00 Build 0)  -->
<!DOCTYPE svg PUBLIC "-//W3C//DTD SVG 1.1//EN" "http://www.w3.org/Graphics/SVG/1.1/DTD/svg11.dtd">
<svg version="1.1" id="Ebene_1" xmlns="http://www.w3.org/2000/svg" xmlns:xlink="http://www.w3.org/1999/xlink" x="0px" y="0px"
	 width="100px" height="100px" viewBox="0 0 100 100" enable-background="new 0 0 100 100" xml:space="preserve">
<g>
	<g>
		<path fill="#FFFFFF" d="M91.497,56.933c-0.653-2.361-0.96-2.674-3.143-2.89c-3.355-0.332-6.715-0.614-10.075-0.909
			c-13.56-1.194-27.111-1.08-40.655,0.257c-1.682,0.166-3.369,0.289-5.284,0.452c0.278-0.795,0.403-1.364,0.663-1.86
			c0.794-1.51,1.688-2.969,2.444-4.495c0.317-0.641,0.516-1.402,0.52-2.109c0.002-0.356-0.496-0.873-0.88-1.017
			c-0.256-0.097-0.842,0.242-1.054,0.545c-0.666,0.953-1.199,1.998-1.842,2.969c-0.206,0.312-0.593,0.505-0.897,0.752
			c-0.186-0.381-0.513-0.757-0.53-1.146c-0.039-0.867,0.027-1.749,0.146-2.612c0.115-0.837-0.406-1.176-0.985-1.014
			c-0.465,0.13-0.875,0.695-1.166,1.156c-0.476,0.753-0.682,1.728-1.277,2.34c-0.952,0.978-1.559,0.694-1.791-0.639
			c-0.043-0.245-0.116-0.486-0.189-0.724c-0.517-1.689-1.252-1.877-2.561-0.73c-0.747,0.655-1.581,1.208-2.376,1.808
			c-0.099-0.085-0.197-0.172-0.296-0.257c0.126-0.415,0.353-0.829,0.353-1.243c0-0.477-0.073-1.246-0.342-1.363
			c-0.422-0.184-1.076-0.023-1.555,0.175c-0.395,0.164-0.645,0.644-1.02,0.894c-0.733,0.49-1.375,0.796-2.044-0.278
			c-0.736-1.182-2.028-1.377-3.338-1.141c-2.068,0.373-4.008,2.708-4.058,4.825c-0.053,2.293,1.367,3.678,3.658,3.566
			c2.187-0.105,3.93-1.638,4.241-3.861c0.151-1.081,0.619-1.547,1.793-1.401c-0.053,0.991-0.147,1.934-0.14,2.877
			c0.009,1.102,0.731,1.646,1.739,1.214c0.433-0.185,0.658-0.826,1.02-1.221c0.598-0.648,1.231-1.266,1.851-1.896
			c0.438,0.534,0.967,1.018,1.293,1.613c0.688,1.252,1.474,1.52,2.72,0.769c0.741-0.445,1.473-0.909,2.204-1.362
			c0.331,0.28,0.566,0.51,0.832,0.697c0.51,0.36,1.369,0.618,1.471,1.06c0.123,0.536-0.386,1.217-0.625,1.835
			c-0.09,0.232-0.218,0.452-0.29,0.69c-0.243,0.791-0.702,1.176-1.586,1.306c-2.757,0.404-5.523,0.818-8.239,1.434
			c-6.527,1.48-13.029,3.078-19.685,4.662c0.867,1.1,1.56,1.684,3.009,1.354c6.366-1.447,12.764-2.764,19.166-4.054
			c1.803-0.363,3.658-0.471,5.694-0.721c-0.535,1.523-1.015,2.757-1.383,4.023c-0.104,0.357,0.035,1.107,0.214,1.161
			c0.452,0.133,1.06,0.103,1.474-0.113c0.351-0.181,0.575-0.69,0.756-1.098c0.438-0.989,0.923-1.976,1.192-3.015
			c0.329-1.268,1.093-1.679,2.311-1.773c5.478-0.425,10.948-0.959,16.428-1.356c11.039-0.8,22.057-0.332,33.055,0.741
			C85.452,56.101,88.451,56.549,91.497,56.933z M65.692,44.833c-0.394-0.877-0.621-1.506-0.95-2.077
			c-0.271-0.469-0.664-0.867-1.003-1.296c-0.381,0.392-0.811,0.748-1.138,1.181c-1.202,1.594-2.336,3.239-3.582,4.797
			c-0.243,0.303-0.872,0.388-1.319,0.379c-0.127-0.002-0.333-0.687-0.342-1.063c-0.017-0.745,0.095-1.494,0.124-2.242
			c0.096-2.489-1.574-3.752-3.94-2.904c-0.849,0.305-1.626,0.83-2.404,1.307c-1.832,1.123-3.782,1.317-6.006,0.91
			c0.208-0.946,0.423-1.782,0.568-2.63c0.193-1.124,0.76-1.537,1.952-1.545c2.045-0.012,4.089-0.263,6.134-0.412
			c0.038-0.163,0.076-0.324,0.114-0.487c-0.77-0.365-1.558-1.076-2.307-1.036c-4.114,0.218-8.219,0.603-12.322,0.987
			c-0.363,0.034-0.688,0.47-1.032,0.719c0.365,0.242,0.716,0.662,1.097,0.694c1.146,0.092,2.304,0.032,3.575,0.032
			c-0.145,0.701-0.252,1.226-0.362,1.75c-0.432,2.07-0.435,2.04-2.561,2.195c-0.317,0.023-0.602,0.492-0.902,0.755
			c0.264,0.296,0.478,0.748,0.804,0.854c0.565,0.184,1.201,0.153,1.916,0.224c-0.117,1.232-0.195,2.345-0.334,3.452
			c-0.127,1.008,0.025,1.739,1.259,1.797c1.188,0.056,1.634-0.308,1.765-1.545c0.044-0.413,0.102-0.825,0.161-1.236
			c0.381-2.706,0.385-2.631,3.024-2.731c1.276-0.048,1.63,0.341,1.622,1.592c-0.011,1.898,0.61,2.651,2.483,2.766
			c1.343,0.083,2.715-0.313,4.412-0.541c1.448,1.104,2.384,1.084,4.115-0.479c0.647-0.583,1.211-1.258,1.801-1.904
			c0.398-0.435,0.772-0.892,1.218-1.412c0.453,1.3-0.112,1.974-0.918,2.628c-0.343,0.278-0.478,0.81-0.708,1.227
			c0.384,0.204,0.748,0.479,1.156,0.596c0.758,0.216,1.543,0.338,2.315,0.506c0.92,0.199,1.295-0.033,1.165-1.09
			c-0.089-0.717-0.067-1.693,0.347-2.171c0.674-0.777,1.709-1.242,2.579-1.831c1.152,1.49,1.135,1.614-0.135,2.583
			c-0.33,0.251-0.744,0.501-0.892,0.849c-0.14,0.331-0.09,1.088,0.06,1.142c1.531,0.546,3.099,0.987,5.061,1.579
			c-0.695-2.241-0.888-3.947,1.703-4.388c0.161,0.463,0.247,1.068,0.556,1.522c0.439,0.643,0.966,1.507,1.6,1.652
			c0.534,0.122,1.33-0.571,1.906-1.033c0.743-0.597,1.383-1.322,2.19-2.113c0.125,0.445,0.177,0.561,0.188,0.681
			c0.066,0.804,0.123,1.637,1.079,1.906c0.915,0.256,1.467-0.314,1.994-0.958c0.324-0.396,0.746-0.714,1.228-1.165
			c0.161,0.5,0.257,0.806,0.356,1.111c0.115,0.356,0.194,0.73,0.354,1.065c0.553,1.165,1.664,1.368,2.622,0.52
			c0.712-0.63,1.446-1.235,1.864-1.591c1.328,0.338,2.468,1.018,3.327,0.76c1.556-0.467,2.123,0.318,2.705,1.347
			c0.67,1.181,1.649,1.34,2.971,1.026c-0.204-0.367-0.319-0.674-0.518-0.912c-1.252-1.511-1.816-3.125-0.983-5.061
			c0.257-0.599,0.219-1.323,0.45-1.939c0.472-1.26-0.186-1.817-1.255-2.256c-0.172,0.433-0.332,0.834-0.52,1.309
			c-1.308-1.076-2.707-1.738-4.124-0.619c-0.839,0.663-1.434,1.668-2.028,2.59c-0.303,0.471-0.208,1.245-0.566,1.623
			c-0.521,0.55-1.288,0.868-1.95,1.285c-0.148-0.54-0.296-1.08-0.445-1.619c-0.237-0.862-0.394-1.76-0.755-2.567
			c-0.139-0.312-0.771-0.615-1.123-0.561c-0.316,0.049-0.625,0.558-0.812,0.927c-0.223,0.436-0.208,1.02-0.49,1.391
			c-0.231,0.303-0.749,0.388-1.139,0.57c-0.158-0.343-0.387-0.673-0.454-1.034c-0.072-0.398,0.115-0.862-0.012-1.229
			c-0.133-0.381-0.456-0.871-0.788-0.956c-0.278-0.072-0.788,0.293-1.022,0.598c-0.784,1.022-1.458,2.13-2.243,3.154
			c-0.344,0.449-0.85,0.774-1.414,1.27c-0.178-0.519-0.316-0.743-0.323-0.973c-0.029-0.914,0.04-1.833-0.043-2.741
			c-0.046-0.496-0.192-1.188-0.533-1.39c-0.292-0.174-0.984,0.126-1.392,0.385c-0.699,0.444-1.305,1.032-1.965,1.539
			c-1.096,0.841-1.281,0.769-1.932-0.463c-0.53-1.001-1.137-1.961-1.731-2.975C68.391,42.621,67.121,43.663,65.692,44.833z
			 M7.505,41.257c2.317-0.141,4.529-0.276,6.809-0.415c-0.919-1.894-0.933-1.877-2.668-1.778c-2.951,0.169-5.903,0.311-8.855,0.444
			c-0.851,0.039-1.705,0.006-2.685,0.006c-0.312,0.64,0.092,1.093,0.844,1.264c0.643,0.145,1.318,0.155,1.98,0.211
			c1.635,0.139,1.742,0.303,1.487,1.942c-0.346,2.22-0.692,4.44-0.954,6.67c-0.151,1.285,0.396,1.969,1.372,1.905
			c0.98-0.064,1.281-0.733,1.403-1.609C6.639,47.025,7.077,44.155,7.505,41.257z M77.324,40.209c1.104,0.022,2.05-0.875,1.931-1.703
			c-0.055-0.375-0.628-0.674-0.966-1.008c-0.55,0.582-1.167,1.122-1.6,1.781C76.596,39.42,77.174,39.999,77.324,40.209z"/>
		<path fill-rule="evenodd" clip-rule="evenodd" d="M91.497,56.933c-3.046-0.383-6.044-0.832-9.059-1.125
			c-10.998-1.072-22.016-1.541-33.055-0.741c-5.479,0.397-10.95,0.931-16.428,1.356c-1.217,0.094-1.982,0.505-2.311,1.773
			c-0.269,1.039-0.754,2.026-1.192,3.015c-0.181,0.408-0.405,0.917-0.756,1.098c-0.414,0.216-1.022,0.246-1.474,0.113
			c-0.18-0.054-0.318-0.804-0.214-1.161c0.368-1.266,0.848-2.5,1.383-4.023c-2.036,0.25-3.891,0.358-5.694,0.721
			c-6.401,1.29-12.799,2.606-19.166,4.054c-1.449,0.33-2.142-0.254-3.009-1.354c6.656-1.584,13.158-3.182,19.685-4.662
			c2.715-0.616,5.481-1.03,8.239-1.434c0.885-0.13,1.343-0.515,1.586-1.306c0.072-0.238,0.2-0.458,0.29-0.69
			c0.24-0.618,0.749-1.299,0.625-1.835c-0.102-0.441-0.961-0.7-1.471-1.06c-0.266-0.187-0.501-0.417-0.832-0.697
			c-0.731,0.453-1.462,0.917-2.204,1.362c-1.246,0.75-2.031,0.483-2.72-0.769c-0.326-0.595-0.856-1.079-1.293-1.613
			c-0.62,0.63-1.253,1.248-1.851,1.896c-0.362,0.395-0.587,1.036-1.02,1.221c-1.008,0.431-1.73-0.113-1.739-1.214
			c-0.008-0.943,0.086-1.886,0.14-2.877c-1.174-0.146-1.642,0.32-1.793,1.401c-0.312,2.223-2.055,3.756-4.241,3.861
			c-2.291,0.112-3.711-1.273-3.658-3.566c0.05-2.117,1.99-4.452,4.058-4.825c1.31-0.236,2.602-0.041,3.338,1.141
			c0.669,1.075,1.311,0.769,2.044,0.278c0.375-0.25,0.625-0.73,1.02-0.894c0.479-0.199,1.133-0.359,1.555-0.175
			c0.269,0.117,0.342,0.886,0.342,1.363c0,0.414-0.227,0.828-0.353,1.243c0.099,0.085,0.197,0.172,0.296,0.257
			c0.795-0.599,1.629-1.152,2.376-1.808c1.309-1.147,2.044-0.959,2.561,0.73c0.073,0.238,0.146,0.479,0.189,0.724
			c0.232,1.333,0.839,1.617,1.791,0.639c0.596-0.612,0.801-1.587,1.277-2.34c0.291-0.461,0.701-1.026,1.166-1.156
			c0.58-0.162,1.1,0.177,0.985,1.014c-0.118,0.863-0.184,1.745-0.146,2.612c0.017,0.39,0.344,0.765,0.53,1.146
			c0.304-0.247,0.691-0.44,0.897-0.752c0.643-0.971,1.176-2.016,1.842-2.969c0.211-0.303,0.797-0.642,1.054-0.545
			c0.384,0.145,0.882,0.661,0.88,1.017c-0.004,0.707-0.203,1.469-0.52,2.109c-0.756,1.526-1.649,2.985-2.444,4.495
			c-0.26,0.496-0.385,1.065-0.663,1.86c1.915-0.163,3.602-0.286,5.284-0.452c13.543-1.337,27.095-1.451,40.655-0.257
			c3.359,0.295,6.719,0.578,10.075,0.909C90.536,54.258,90.844,54.571,91.497,56.933z M11.302,50.751
			c1.391,0.043,2.665-1.148,2.995-2.458c0.294-1.17-0.271-1.865-1.48-1.822c-1.437,0.053-2.866,1.947-2.393,3.303
			C10.581,50.229,11.114,50.552,11.302,50.751z"/>
		<path fill-rule="evenodd" clip-rule="evenodd" d="M65.692,44.833c1.429-1.171,2.699-2.213,4.199-3.443
			c0.594,1.014,1.201,1.974,1.731,2.975c0.651,1.232,0.836,1.305,1.932,0.463c0.66-0.506,1.266-1.094,1.965-1.539
			c0.408-0.259,1.1-0.559,1.392-0.385c0.34,0.202,0.487,0.894,0.533,1.39c0.083,0.907,0.014,1.827,0.043,2.741
			c0.007,0.23,0.145,0.455,0.323,0.973c0.563-0.496,1.07-0.821,1.414-1.27c0.784-1.024,1.458-2.132,2.243-3.154
			c0.234-0.305,0.744-0.67,1.022-0.598c0.333,0.085,0.655,0.575,0.788,0.956c0.127,0.366-0.06,0.83,0.012,1.229
			c0.066,0.36,0.296,0.691,0.454,1.034c0.391-0.182,0.908-0.267,1.139-0.57c0.283-0.371,0.268-0.955,0.49-1.391
			c0.187-0.369,0.495-0.878,0.812-0.927c0.352-0.055,0.983,0.249,1.123,0.561c0.361,0.807,0.518,1.705,0.755,2.567
			c0.149,0.539,0.297,1.079,0.445,1.619c0.662-0.417,1.429-0.734,1.95-1.285c0.358-0.378,0.263-1.152,0.566-1.623
			c0.594-0.922,1.189-1.927,2.028-2.59c1.417-1.12,2.816-0.458,4.124,0.619c0.188-0.475,0.348-0.876,0.52-1.309
			c1.069,0.438,1.727,0.996,1.255,2.256c-0.231,0.616-0.192,1.34-0.45,1.939c-0.833,1.936-0.269,3.549,0.983,5.061
			c0.198,0.238,0.313,0.545,0.518,0.912c-1.322,0.314-2.3,0.155-2.971-1.026c-0.583-1.028-1.149-1.813-2.705-1.347
			c-0.858,0.258-1.999-0.422-3.327-0.76c-0.418,0.356-1.152,0.961-1.864,1.591c-0.958,0.848-2.068,0.645-2.622-0.52
			c-0.16-0.334-0.239-0.708-0.354-1.065c-0.099-0.306-0.195-0.611-0.356-1.111c-0.482,0.451-0.903,0.769-1.228,1.165
			c-0.527,0.644-1.079,1.214-1.994,0.958c-0.956-0.269-1.013-1.102-1.079-1.906c-0.01-0.12-0.062-0.235-0.188-0.681
			c-0.807,0.792-1.447,1.517-2.19,2.113c-0.576,0.462-1.372,1.155-1.906,1.033c-0.634-0.145-1.161-1.01-1.6-1.652
			c-0.309-0.455-0.396-1.06-0.556-1.522c-2.59,0.441-2.398,2.147-1.703,4.388c-1.961-0.592-3.53-1.033-5.061-1.579
			c-0.15-0.054-0.2-0.812-0.06-1.142c0.148-0.347,0.562-0.597,0.892-0.849c1.27-0.969,1.288-1.093,0.135-2.583
			c-0.87,0.589-1.905,1.054-2.579,1.831c-0.414,0.478-0.436,1.455-0.347,2.171c0.131,1.058-0.244,1.29-1.165,1.09
			c-0.772-0.168-1.557-0.29-2.315-0.506c-0.409-0.117-0.772-0.393-1.156-0.596c0.23-0.417,0.365-0.949,0.708-1.227
			c0.806-0.654,1.371-1.328,0.918-2.628c-0.446,0.52-0.82,0.977-1.218,1.412c-0.59,0.646-1.154,1.32-1.801,1.904
			c-1.73,1.563-2.667,1.583-4.115,0.479c-1.696,0.228-3.068,0.624-4.412,0.541c-1.874-0.115-2.495-0.868-2.483-2.766
			c0.008-1.251-0.346-1.64-1.622-1.592c-2.639,0.1-2.643,0.025-3.024,2.731c-0.059,0.412-0.117,0.824-0.161,1.236
			c-0.131,1.237-0.577,1.601-1.765,1.545c-1.233-0.058-1.386-0.789-1.259-1.797c0.139-1.106,0.218-2.219,0.334-3.452
			c-0.715-0.07-1.351-0.04-1.916-0.224c-0.327-0.106-0.54-0.558-0.804-0.854c0.3-0.263,0.584-0.732,0.902-0.755
			c2.126-0.155,2.129-0.125,2.561-2.195c0.11-0.524,0.217-1.049,0.362-1.75c-1.271,0-2.429,0.06-3.575-0.032
			c-0.381-0.032-0.732-0.452-1.097-0.694c0.344-0.249,0.669-0.686,1.032-0.719c4.103-0.384,8.208-0.77,12.322-0.987
			c0.749-0.04,1.537,0.671,2.307,1.036c-0.038,0.163-0.076,0.325-0.114,0.487c-2.044,0.149-4.088,0.4-6.134,0.412
			c-1.192,0.008-1.758,0.421-1.952,1.545c-0.146,0.848-0.361,1.684-0.568,2.63c2.224,0.407,4.175,0.212,6.006-0.91
			c0.778-0.477,1.555-1.002,2.404-1.307c2.366-0.848,4.036,0.415,3.94,2.904c-0.029,0.749-0.141,1.497-0.124,2.242
			c0.008,0.376,0.214,1.061,0.342,1.063c0.447,0.008,1.076-0.076,1.319-0.379c1.246-1.558,2.38-3.204,3.582-4.797
			c0.328-0.433,0.757-0.789,1.138-1.181c0.339,0.429,0.733,0.827,1.003,1.296C65.071,43.327,65.298,43.957,65.692,44.833z
			 M55.761,44.119c-0.088-1.2-0.629-1.64-1.525-0.944c-0.903,0.701-1.654,1.695-2.227,2.7c-0.571,1.002-0.196,2.067,0.636,2.323
			c1.044,0.319,1.838-0.208,2.23-1.117C55.28,46.141,55.474,45.11,55.761,44.119z M92.66,46.514c0.288,0.59,0.387,1.155,0.645,1.239
			c0.407,0.133,0.987,0.071,1.372-0.137c0.839-0.453,1.484-2.253,1.267-3.202c-0.212-0.933-1.007-1.252-1.632-0.526
			C93.637,44.669,93.19,45.648,92.66,46.514z"/>
		<path fill-rule="evenodd" clip-rule="evenodd" d="M7.505,41.257c-0.428,2.898-0.866,5.768-1.267,8.643
			c-0.122,0.876-0.423,1.545-1.403,1.609c-0.976,0.064-1.523-0.621-1.372-1.905c0.262-2.23,0.608-4.45,0.954-6.67
			c0.255-1.639,0.148-1.803-1.487-1.942c-0.662-0.056-1.337-0.066-1.98-0.211c-0.751-0.171-1.156-0.625-0.844-1.264
			c0.98,0,1.833,0.032,2.685-0.006c2.953-0.133,5.905-0.275,8.855-0.444c1.736-0.1,1.749-0.116,2.668,1.778
			C12.034,40.981,9.822,41.116,7.505,41.257z"/>
		<path fill-rule="evenodd" clip-rule="evenodd" d="M77.324,40.209c-0.15-0.21-0.728-0.789-0.635-0.93
			c0.432-0.659,1.049-1.199,1.6-1.781c0.338,0.334,0.911,0.633,0.966,1.008C79.375,39.333,78.428,40.231,77.324,40.209z"/>
		<path fill-rule="evenodd" clip-rule="evenodd" fill="#FFFFFF" d="M11.302,50.751c-0.188-0.199-0.721-0.523-0.879-0.977
			c-0.473-1.356,0.956-3.25,2.393-3.303c1.209-0.043,1.774,0.652,1.48,1.822C13.967,49.603,12.693,50.795,11.302,50.751z"/>
		<path fill-rule="evenodd" clip-rule="evenodd" fill="#FFFFFF" d="M55.761,44.119c-0.287,0.991-0.481,2.022-0.886,2.962
			c-0.393,0.909-1.186,1.436-2.23,1.117c-0.832-0.255-1.207-1.32-0.636-2.323c0.573-1.005,1.323-2,2.227-2.7
			C55.131,42.479,55.672,42.918,55.761,44.119z"/>
		<path fill-rule="evenodd" clip-rule="evenodd" fill="#FFFFFF" d="M92.66,46.514c0.53-0.866,0.977-1.844,1.651-2.626
			c0.625-0.726,1.42-0.407,1.632,0.526c0.217,0.949-0.428,2.749-1.267,3.202c-0.385,0.208-0.965,0.27-1.372,0.137
			C93.047,47.669,92.948,47.104,92.66,46.514z"/>
	</g>
</g>
</svg>
