<?xml version="1.0" encoding="utf-8"?>
<!-- Generator: Adobe Illustrator 16.0.4, SVG Export Plug-In . SVG Version: 6.00 Build 0)  -->
<!DOCTYPE svg PUBLIC "-//W3C//DTD SVG 1.1//EN" "http://www.w3.org/Graphics/SVG/1.1/DTD/svg11.dtd">
<svg version="1.1" id="Ebene_1" xmlns="http://www.w3.org/2000/svg" xmlns:xlink="http://www.w3.org/1999/xlink" x="0px" y="0px"
	 width="48px" height="48px" viewBox="0 0 48 48" enable-background="new 0 0 48 48" xml:space="preserve">
<path fill="#FFFFFF" d="M24,14V6H4v36h40V14H24z M12,38H8v-4h4V38z M12,30H8v-4h4V30z M12,22H8v-4h4V22z M12,14H8v-4h4V14z M20,38
	h-4v-4h4V38z M20,30h-4v-4h4V30z M20,22h-4v-4h4V22z M20,14h-4v-4h4V14z M40,38H24v-4h4v-4h-4v-4h4v-4h-4v-4h16V38z M36,22h-4v4h4
	V22z M36,30h-4v4h4V30z"/>
</svg>
