<?xml version="1.0" encoding="utf-8"?>
<!-- Generator: Adobe Illustrator 16.0.4, SVG Export Plug-In . SVG Version: 6.00 Build 0)  -->
<!DOCTYPE svg PUBLIC "-//W3C//DTD SVG 1.1//EN" "http://www.w3.org/Graphics/SVG/1.1/DTD/svg11.dtd">
<svg version="1.1" id="_x31_" xmlns:svg="http://www.w3.org/2000/svg"
	 xmlns="http://www.w3.org/2000/svg" xmlns:xlink="http://www.w3.org/1999/xlink" x="0px" y="0px" width="300px" height="150px"
	 viewBox="0 75 300 150" enable-background="new 0 75 300 150" xml:space="preserve">
<g opacity="0.5">
	<path d="M108.636,122.216h-14.09v50.909h14.09c14.546,0,24.545-11.364,24.545-25.455
		C133.181,133.124,123.183,122.216,108.636,122.216z M105.908,164.486h-1.817v-33.634h1.817c11.364,0,16.821,5.455,16.821,16.818
		C122.729,157.669,118.183,164.486,105.908,164.486z"/>
	<polygon points="139.546,173.125 165.91,173.125 165.91,164.486 149.545,164.486 149.545,150.396 165.456,150.396 165.456,141.762 
		149.545,141.762 149.545,130.852 165.91,130.852 165.91,122.216 139.546,122.216 	"/>
	<path d="M281.363,124.034c-0.453-2.272-2.727-3.183-4.545-3.183c-1.819,0-4.092,0.91-4.547,3.183l-19.09,49.091h10.455l4.09-10.91
		h17.729l4.092,10.91H300L281.363,124.034z M270.453,154.035l6.365-18.184l5.91,18.184H270.453z"/>
	<polygon points="212.727,122.216 200.455,122.216 184.546,143.579 184.546,122.216 174.547,122.216 174.547,173.125 
		184.546,173.125 184.546,149.943 200.909,173.125 213.639,173.125 193.184,145.397 	"/>
	<path d="M250.91,137.216c0-8.183-6.818-15-15.456-15h-16.815v50.909h9.998V152.67l12.272,20.455h12.272l-14.09-20.909
		C245.911,150.851,250.91,144.488,250.91,137.216z M233.637,145.397h-5v-15h5c4.092,0,7.272,3.182,7.272,7.272
		C240.909,142.215,237.729,145.397,233.637,145.397z"/>
	<path d="M59.091,134.034l-43.182-25c-0.91-0.455-2.273-0.455-3.182,0c-0.909,0.454-1.818,1.818-1.818,2.727v48.181l13.637-7.726
		v-23.183l28.182,16.364L0,175.852v15.455l59.091-34.092c3.183-2.272,6.818-5.908,6.818-11.817
		C65.909,139.942,62.273,135.852,59.091,134.034z"/>
</g>
</svg>
