<?xml version="1.0" encoding="utf-8"?>
<!-- Generator: Adobe Illustrator 16.0.4, SVG Export Plug-In . SVG Version: 6.00 Build 0)  -->
<!DOCTYPE svg PUBLIC "-//W3C//DTD SVG 1.1//EN" "http://www.w3.org/Graphics/SVG/1.1/DTD/svg11.dtd">
<svg version="1.1" id="Ebene_1" xmlns="http://www.w3.org/2000/svg" xmlns:xlink="http://www.w3.org/1999/xlink" x="0px" y="0px"
	 width="300px" height="150px" viewBox="0 75 300 150" enable-background="new 0 75 300 150" xml:space="preserve">
<g opacity="0.5">
	<path d="M35.631,109.413h20.82l-4.189,19.963c-2.455,1.587-5.464,2.931-9.029,4.031c-3.566,1.1-7.2,1.65-10.902,1.65
		c-5.755,0-10.167-1.301-13.235-3.904c-4.189-3.555-6.284-8.707-6.284-15.457c0-4.528,0.899-8.865,2.698-13.013
		c2.158-4.993,5.226-8.865,9.204-11.616c3.978-2.75,8.654-4.126,14.028-4.126s9.685,1.249,12.934,3.745
		c3.248,2.497,5.4,6.136,6.458,10.918l-8.918,1.016c-0.783-2.624-2.047-4.602-3.793-5.935c-1.745-1.333-3.941-2-6.585-2
		c-3.089,0-5.925,0.804-8.506,2.412c-2.582,1.608-4.602,4.094-6.062,7.458c-1.46,3.364-2.19,7.036-2.19,11.013
		c0,3.915,0.889,6.808,2.666,8.68c1.777,1.873,4.38,2.809,7.808,2.809c2.052,0,4.158-0.291,6.316-0.873
		c2.158-0.582,4.02-1.275,5.586-2.079l1.428-6.919h-11.87L35.631,109.413z"/>
	<path d="M70.067,134.264h-9.585l9.744-46.528h20.662c3.555,0,6.321,0.365,8.3,1.095c1.978,0.73,3.575,2.069,4.792,4.015
		c1.217,1.947,1.825,4.306,1.825,7.078c0,3.957-1.185,7.221-3.555,9.791c-2.37,2.571-5.957,4.164-10.759,4.777
		c1.227,1.101,2.38,2.55,3.459,4.348c2.137,3.64,4.517,8.781,7.141,15.425H91.808c-0.825-2.624-2.444-6.718-4.856-12.283
		c-1.312-3.004-2.708-5.025-4.189-6.062c-0.91-0.613-2.497-0.92-4.761-0.92h-3.904L70.067,134.264z M75.558,108.017h5.078
		c5.142,0,8.553-0.307,10.236-0.92c1.682-0.613,2.999-1.576,3.951-2.888c0.952-1.312,1.428-2.687,1.428-4.126
		c0-1.692-0.688-2.962-2.063-3.809c-0.847-0.508-2.677-0.762-5.491-0.762H78.161L75.558,108.017z"/>
	<path d="M116.977,87.736h9.553L121.261,113l-1.301,6.221c-0.085,0.529-0.127,1.026-0.127,1.492c0,1.841,0.671,3.359,2.015,4.554
		c1.344,1.196,3.295,1.793,5.856,1.793c2.306,0,4.21-0.434,5.713-1.301c1.502-0.867,2.666-2.158,3.491-3.872
		c0.825-1.714,1.661-4.623,2.507-8.728l5.332-25.422h9.553L149,113.19c-1.122,5.354-2.412,9.448-3.872,12.283
		s-3.671,5.142-6.633,6.919s-6.708,2.666-11.235,2.666c-5.417,0-9.564-1.328-12.441-3.983c-2.878-2.655-4.316-6.067-4.316-10.236
		c0-0.867,0.074-1.809,0.222-2.825c0.084-0.677,0.455-2.603,1.111-5.776L116.977,87.736z"/>
	<path d="M163.727,134.264h-9.584l9.742-46.528h18.916c3.365,0,6.025,0.396,7.982,1.19c1.957,0.793,3.508,2.105,4.65,3.936
		c1.142,1.831,1.713,4.015,1.713,6.554c0,2.349-0.455,4.634-1.363,6.855c-0.91,2.222-2.027,3.999-3.35,5.332
		c-1.324,1.333-2.744,2.344-4.27,3.031c-1.523,0.687-3.576,1.211-6.158,1.571c-1.502,0.212-4.314,0.317-8.439,0.317h-6.127
		L163.727,134.264z M169.027,108.81h2.951c5.057,0,8.432-0.317,10.125-0.952c1.689-0.635,3.023-1.65,3.998-3.047
		c0.973-1.397,1.461-2.93,1.461-4.602c0-1.121-0.25-2.042-0.746-2.761c-0.498-0.719-1.195-1.243-2.096-1.571
		c-0.898-0.328-2.902-0.492-6.016-0.492h-6.854L169.027,108.81z"/>
	<path d="M207.08,134.264h-9.584l9.744-46.528h18.916c3.363,0,6.023,0.396,7.982,1.19c1.957,0.793,3.506,2.105,4.646,3.936
		c1.142,1.831,1.715,4.015,1.715,6.554c0,2.349-0.455,4.634-1.365,6.855c-0.908,2.221-2.023,3.999-3.348,5.332
		s-2.746,2.344-4.271,3.031c-1.522,0.687-3.576,1.211-6.158,1.571c-1.502,0.212-4.314,0.317-8.439,0.317h-6.125L207.08,134.264z
		 M212.381,108.81h2.951c5.059,0,8.432-0.317,10.125-0.952c1.693-0.635,3.025-1.65,4-3.047c0.973-1.396,1.459-2.93,1.459-4.602
		c0-1.121-0.248-2.042-0.746-2.761c-0.496-0.719-1.195-1.243-2.094-1.571c-0.9-0.328-2.904-0.492-6.016-0.492h-6.855L212.381,108.81
		z"/>
	<path d="M243.898,116.015c0-2.75,0.412-5.649,1.234-8.696c1.08-4.083,2.727-7.627,4.938-10.632c2.211-3.004,5-5.38,8.363-7.125
		c3.363-1.746,7.191-2.619,11.488-2.619c5.754,0,10.404,1.788,13.947,5.364c3.545,3.576,5.314,8.315,5.314,14.219
		c0,4.909-1.15,9.659-3.459,14.25c-2.307,4.592-5.438,8.125-9.395,10.601s-8.432,3.713-13.426,3.713
		c-4.338,0-7.978-0.984-10.918-2.952c-2.941-1.968-5.025-4.406-6.252-7.316C244.512,121.913,243.898,118.977,243.898,116.015z
		 M253.355,115.824c0,3.195,0.973,5.872,2.92,8.03s4.508,3.237,7.682,3.237c2.58,0,5.061-0.852,7.441-2.555
		c2.379-1.703,4.348-4.285,5.902-7.744c1.557-3.46,2.332-6.829,2.332-10.109c0-3.66-0.982-6.533-2.949-8.617
		c-1.971-2.084-4.477-3.126-7.521-3.126c-4.678,0-8.48,2.18-11.41,6.538C254.82,105.837,253.355,110.619,253.355,115.824z"/>
	<path d="M10.812,212.266l9.744-46.529h32.563l-1.65,7.777H28.49l-2.349,11.172h22.534l-1.619,7.774H24.523l-4.126,19.806H10.812
		L10.812,212.266z"/>
	<path d="M77.526,201.98h-18.44L53.5,212.266h-9.839l26.311-46.529h10.632l7.554,46.529h-9.077L77.526,201.98z M76.352,194.236
		l-2.698-18.727l-11.235,18.727H76.352z"/>
	<path d="M95.458,197.188l9.109-0.476c0.127,2.899,0.624,4.856,1.492,5.872c1.396,1.65,3.978,2.475,7.744,2.475
		c3.131,0,5.396-0.56,6.792-1.682c1.396-1.121,2.095-2.477,2.095-4.062c0-1.375-0.571-2.539-1.714-3.489
		c-0.804-0.698-3.01-1.83-6.617-3.396c-3.608-1.566-6.242-2.873-7.903-3.921s-2.967-2.405-3.919-4.077
		c-0.952-1.673-1.428-3.63-1.428-5.871c0-3.914,1.417-7.162,4.253-9.744c2.835-2.58,6.94-3.871,12.314-3.871
		c5.459,0,9.685,1.279,12.68,3.84c2.994,2.561,4.639,5.967,4.935,10.22l-9.172,0.412c-0.233-2.222-1.037-3.924-2.412-5.108
		c-1.375-1.186-3.407-1.776-6.094-1.776c-2.645,0-4.534,0.466-5.665,1.396c-1.132,0.934-1.698,2.105-1.698,3.523
		c0,1.332,0.518,2.433,1.555,3.301c1.037,0.891,3.333,2.104,6.887,3.648c5.353,2.308,8.76,4.18,10.22,5.617
		c2.179,2.115,3.269,4.836,3.269,8.156c0,4.105-1.624,7.612-4.872,10.521c-3.249,2.908-7.771,4.363-13.568,4.363
		c-3.999,0-7.464-0.674-10.395-2.017c-2.931-1.344-4.999-3.211-6.205-5.604C95.934,203.05,95.373,200.3,95.458,197.188z"/>
	<path d="M138.812,197.188l9.109-0.476c0.127,2.899,0.624,4.856,1.492,5.872c1.396,1.65,3.978,2.475,7.745,2.475
		c3.131,0,5.395-0.56,6.791-1.682c1.396-1.121,2.096-2.477,2.096-4.062c0-1.375-0.572-2.539-1.715-3.489
		c-0.805-0.698-3.01-1.83-6.617-3.396c-3.607-1.566-6.242-2.873-7.903-3.921c-1.662-1.048-2.968-2.405-3.92-4.077
		c-0.952-1.673-1.428-3.63-1.428-5.871c0-3.914,1.417-7.162,4.253-9.744c2.836-2.58,6.939-3.871,12.314-3.871
		c5.459,0,9.686,1.279,12.68,3.84s4.639,5.967,4.936,10.22l-9.172,0.412c-0.234-2.222-1.037-3.924-2.412-5.108
		c-1.377-1.186-3.408-1.776-6.094-1.776c-2.646,0-4.533,0.466-5.666,1.396c-1.133,0.934-1.697,2.105-1.697,3.523
		c0,1.332,0.52,2.433,1.557,3.301c1.035,0.891,3.332,2.104,6.887,3.648c5.354,2.308,8.762,4.18,10.223,5.617
		c2.178,2.115,3.27,4.836,3.27,8.156c0,4.105-1.625,7.612-4.873,10.521c-3.248,2.908-7.771,4.363-13.568,4.363
		c-3.998,0-7.463-0.674-10.395-2.017c-2.931-1.344-4.999-3.211-6.205-5.604C139.289,203.05,138.728,200.3,138.812,197.188z"/>
	<path d="M180.295,212.266l9.742-46.529h9.555l-9.713,46.529H180.295z"/>
	<path d="M235.965,212.266h-8.918l-12.568-31.263l-6.539,31.263h-8.918l9.711-46.529h8.951l12.602,31.138l6.506-31.138h8.887
		L235.965,212.266z"/>
	<path d="M276.178,201.98H257.74l-5.588,10.283h-9.84l26.312-46.527h10.633l7.557,46.527h-9.078L276.178,201.98z M275.004,194.236
		l-2.699-18.727l-11.234,18.727H275.004z"/>
</g>
</svg>
