<?xml version="1.0" encoding="utf-8"?>
<!-- Generator: Adobe Illustrator 16.0.4, SVG Export Plug-In . SVG Version: 6.00 Build 0)  -->
<!DOCTYPE svg PUBLIC "-//W3C//DTD SVG 1.1//EN" "http://www.w3.org/Graphics/SVG/1.1/DTD/svg11.dtd">
<svg version="1.1" id="svg18888" xmlns:svg="http://www.w3.org/2000/svg"
	 xmlns="http://www.w3.org/2000/svg" xmlns:xlink="http://www.w3.org/1999/xlink" x="0px" y="0px" width="300px" height="150px"
	 viewBox="0 75 300 150" enable-background="new 0 75 300 150" xml:space="preserve">
<g opacity="0.5">
	<path d="M98.839,132.463v-2.609H88.405c-0.405,2.574-6.956,34.783-6.956,34.783h11.015l3.768-17.972
		c0.465-2.272,0.312-4.626,1.74-6.667c1.135-1.634,4.034-2.18,5.797-2.318h4.928l2.027-7.826
		C105.936,129.854,102.817,129.75,98.839,132.463z"/>
	<polygon points="19.129,126.087 44.348,126.087 45.796,116.811 10.145,116.811 0,164.637 36.522,164.637 37.971,155.652 
		13.042,155.652 15.362,144.637 37.971,144.637 39.709,135.072 17.102,135.072 	"/>
	<path d="M66.666,149.854c-1.218,5.078-4.938,6.087-7.536,6.087c-4.477,0-4.766-1.947-4.059-5.217l4.638-20.871H49.274
		l-4.928,22.609c-0.255,1.184-0.673,3.352-0.58,5.507c0.176,5.066,6.39,7.536,9.855,7.536c4.857,0,7.953-1.206,10.436-3.188v2.318
		h10.435c0.231-2.087,0.498-4,0.868-6.087l6.088-28.696H71.012L66.666,149.854z"/>
	<path d="M288.115,132.463v-2.609H277.68c-0.406,2.574-6.957,34.783-6.957,34.783h11.016l3.479-17.972
		c0.465-2.272,0.604-4.626,2.029-6.667c1.146-1.634,4.033-2.18,5.797-2.318h4.637l2.32-7.826
		C295.209,129.854,292.092,129.75,288.115,132.463z"/>
	<path d="M253.332,128.985c-18.225-0.499-17.391,11.305-17.391,11.305h9.564c0,0-0.127-4.638,6.666-4.638
		c0,0,6.135-0.278,5.219,4.058c0,0-0.129,3.745-4.35,3.479c0,0-20.195-2.099-21.738,12.754c0,0-0.834,10.435,11.016,10.435
		c0,0,7.779-0.231,11.305-4.058c0,0,0.984,2.317,4.348,2.317h5.797l1.74-6.956l-0.871-0.578c0,0-0.705,0.092-0.287-1.74
		l3.768-18.261C269.75,129.136,253.332,128.985,253.332,128.985z M245.506,158.84c0,0-4.348,0.288-4.348-3.188
		c0,0,0.104-4.453,6.377-5.217c0,0,4.869-0.337,7.246-1.161C254.781,149.274,253.262,158.84,245.506,158.84z"/>
	<path d="M213.623,128.406c-14.236,0-19.699,7.582-22.029,18.551c-2.33,10.979,2.818,18.841,14.203,18.841
		c11.547,0,18.074-5.495,21.158-13.913h-10.723c-1.463,3.42-3.814,5.797-8.697,5.797c-6.389,0-6.979-5.461-5.797-11.015
		c1.182-5.554,4.047-11.015,10.436-11.015c4.928,0,6.283,3.455,6.086,7.536h10.438C229.322,134.388,225.066,128.406,213.623,128.406
		z"/>
	<path d="M176.232,128.985c-3.201,0-8.385,0.766-11.016,3.479l0.58-2.608h-10.436c-0.35,2.295-10.725,53.333-10.725,53.333h10.145
		l4.348-20.869c2.006,3.105,7.664,3.768,10.146,3.768c10.213,0,14.908-9.889,16.811-18.841
		C188.08,137.867,186.178,128.985,176.232,128.985z M176.521,146.956c-1.139,5.356-3.932,9.854-9.275,9.854
		c-5.623,0-6.238-5.066-5.217-9.854c1.02-4.8,3.941-9.855,9.562-9.855C176.336,137.1,177.656,141.611,176.521,146.956z"/>
	<path d="M132.172,128.406c-14.236,0-19.988,7.57-22.318,18.551c-2.33,10.968,3.107,18.841,14.494,18.841
		c13.529,0,19.987-7.583,22.317-18.552C149.008,136.266,145.309,128.406,132.172,128.406z M136.231,146.956
		c-1.183,5.554-3.096,10.725-10.145,10.725c-6.389,0-6.98-5.46-5.798-11.015c1.183-5.553,4.047-11.015,10.435-11.015
		C137.112,135.651,137.415,141.402,136.231,146.956z"/>
</g>
</svg>
